<svg xmlns="http://www.w3.org/2000/svg" version="1.1" xmlns:xlink="http://www.w3.org/1999/xlink" xmlns:svgjs="http://svgjs.dev/svgjs" width="150" height="150" viewBox="0 0 1500 1500"><rect width="150" height="150" fill="none"></rect><g transform="matrix(0.6666666666666666,0,0,0.6666666666666666,249.39393939393938,589.2946045878344)"><svg viewBox="0 0 396 127" data-background-color="#113826" preserveAspectRatio="xMidYMid meet" height="481" width="1500" xmlns="http://www.w3.org/2000/svg" xmlns:xlink="http://www.w3.org/1999/xlink"><g id="tight-bounds" transform="matrix(1,0,0,1,0.2400000000000091,0.14735514764564073)"><svg viewBox="0 0 395.52 126.70528970470869" height="126.70528970470869" width="395.52"><g><svg viewBox="0 0 395.52 126.70528970470869" height="126.70528970470869" width="395.52"><g><svg viewBox="0 0 395.52 126.70528970470869" height="126.70528970470869" width="395.52"><g id="textblocktransform"><svg viewBox="0 0 395.52 126.70528970470869" height="126.70528970470869" width="395.52" id="textblock"><g><svg viewBox="0 0 395.52 126.70528970470869" height="126.70528970470869" width="395.52"><g transform="matrix(1,0,0,1,0,0)"><svg width="395.52" viewBox="2.05 -35.06 152.92999999999998 49" height="126.70528970470869" data-palette-color="url(#5353c038-f1ca-4969-a282-ae4570020697)"></svg></g></svg></g></svg></g></svg></g></svg></g><defs></defs><mask id="f8d8d95e-f3e3-46f7-b61c-ff40cf3a7419"><g id="SvgjsG3255"><svg viewBox="0 0 395.52 126.70528970470869" height="126.70528970470869" width="395.52"><g><svg viewBox="0 0 395.52 126.70528970470869" height="126.70528970470869" width="395.52"><g><svg viewBox="0 0 395.52 126.70528970470869" height="126.70528970470869" width="395.52"><g id="SvgjsG3254"><svg viewBox="0 0 395.52 126.70528970470869" height="126.70528970470869" width="395.52" id="SvgjsSvg3253"><g><svg viewBox="0 0 395.52 126.70528970470869" height="126.70528970470869" width="395.52"><g transform="matrix(1,0,0,1,0,0)"><svg width="395.52" viewBox="2.05 -35.06 152.92999999999998 49" height="126.70528970470869" data-palette-color="url(#5353c038-f1ca-4969-a282-ae4570020697)"><path d="M27.86-35.06L28-34.4Q27.25-34.13 26.51-33.8 25.78-33.47 25.1-33.11L25.1-33.11Q26.46-31.93 27.31-30.2 28.15-28.47 28.15-26.2L28.15-26.2Q28.15-24.34 27.67-22.78 27.2-21.22 26.34-20.09 25.49-18.97 24.33-18.33 23.17-17.7 21.8-17.7L21.8-17.7Q20.8-17.7 19.82-18.04 18.85-18.38 18.08-19.09 17.31-19.8 16.83-20.86 16.36-21.92 16.36-23.39L16.36-23.39Q16.36-25.02 16.89-26.5 17.43-27.98 18.35-29.24 19.26-30.49 20.48-31.53 21.7-32.57 23.05-33.35L23.05-33.35Q22.34-33.69 21.52-33.9 20.7-34.11 19.85-34.11L19.85-34.11Q18.36-34.11 16.67-33.54 14.99-32.98 13.34-31.86 11.69-30.74 10.19-29.09 8.69-27.44 7.53-25.24 6.37-23.05 5.69-20.34 5-17.63 5-14.4L5-14.4Q5-11.13 5.96-8.2 6.91-5.27 8.74-3.05 10.57-0.83 13.24 0.46 15.92 1.76 19.36 1.76L19.36 1.76Q21.36 1.76 23.28 1.16 25.2 0.56 26.9-0.5 28.61-1.56 30.05-3.04 31.49-4.52 32.54-6.25L32.54-6.25 33.3-5.81Q32.13-3.64 30.48-1.93 28.83-0.22 26.83 0.98 24.83 2.17 22.56 2.81 20.29 3.44 17.9 3.44L17.9 3.44Q14.45 3.44 11.55 2.23 8.64 1.03 6.53-1.2 4.42-3.42 3.23-6.56 2.05-9.69 2.05-13.55L2.05-13.55Q2.05-17.04 2.81-19.98 3.56-22.92 4.88-25.32 6.2-27.71 7.95-29.53 9.69-31.35 11.67-32.58 13.65-33.81 15.75-34.44 17.85-35.06 19.85-35.06L19.85-35.06Q20.95-35.06 22.01-34.73 23.07-34.4 24-33.84L24-33.84Q24.98-34.3 25.95-34.59 26.93-34.89 27.86-35.06L27.86-35.06ZM27.2-26.25L27.2-26.25Q27.2-28.25 26.4-29.87 25.61-31.49 24.24-32.54L24.24-32.54Q23.05-31.76 22.01-30.75 20.97-29.74 20.21-28.5 19.46-27.27 19.03-25.82 18.6-24.37 18.6-22.71L18.6-22.71Q18.6-21.83 18.84-21.08 19.07-20.34 19.51-19.8 19.95-19.26 20.58-18.96 21.22-18.65 22-18.65L22-18.65Q23.32-18.65 24.29-19.41 25.27-20.17 25.92-21.3 26.56-22.44 26.88-23.77 27.2-25.1 27.2-26.25ZM42.19-2.2L42.19-2.2Q43.55-2.2 44.81-3.2 46.07-4.2 46.77-6.1L46.77-6.1 46.58-6.1Q45.07-6.1 43.78-6.62 42.5-7.13 41.56-8.04 40.62-8.96 40.09-10.24 39.55-11.52 39.55-13.06L39.55-13.06Q39.55-13.92 39.78-14.79 40.01-15.67 40.5-16.37 40.99-17.07 41.77-17.5 42.55-17.94 43.63-17.94L43.63-17.94Q44.5-17.94 45.36-17.59 46.21-17.24 46.9-16.38 47.58-15.53 48.01-14.07 48.44-12.62 48.44-10.4L48.44-10.4Q48.44-9.57 48.36-8.75 48.29-7.93 48.09-7.15L48.09-7.15Q49.05-7.32 49.79-7.76 50.53-8.2 51.11-8.83 51.68-9.45 52.12-10.24 52.56-11.04 52.93-11.94L52.93-11.94 53.88-11.69Q53.37-10.3 52.7-9.33 52.02-8.35 51.25-7.69 50.49-7.03 49.64-6.68 48.8-6.32 47.9-6.2L47.9-6.2Q47.56-5 46.99-3.96 46.43-2.91 45.63-2.12 44.82-1.34 43.76-0.89 42.7-0.44 41.38-0.44L41.38-0.44Q40.28-0.44 39.17-0.89 38.06-1.34 37.17-2.28 36.28-3.22 35.73-4.65 35.18-6.08 35.18-8.06L35.18-8.06Q35.18-9.35 35.48-10.6 35.79-11.84 36.34-12.95 36.89-14.06 37.64-15.03 38.4-15.99 39.28-16.7L39.28-16.7 39.65-16.09Q39.08-15.58 38.57-14.82 38.06-14.06 37.64-13.15 37.23-12.23 36.98-11.22 36.74-10.21 36.74-9.2L36.74-9.2Q36.74-7.23 37.24-5.88 37.74-4.54 38.52-3.72 39.3-2.91 40.28-2.55 41.26-2.2 42.19-2.2ZM43.58-16.99L43.58-16.99Q42.92-16.99 42.36-16.71 41.79-16.43 41.38-15.94 40.96-15.45 40.72-14.77 40.48-14.09 40.48-13.26L40.48-13.26Q40.48-11.82 40.96-10.67 41.45-9.52 42.29-8.72 43.14-7.91 44.26-7.48 45.38-7.06 46.68-7.06L46.68-7.06 47.14-7.06Q47.34-7.81 47.41-8.64 47.48-9.47 47.48-10.45L47.48-10.45Q47.43-12.33 47.1-13.59 46.77-14.84 46.26-15.6 45.75-16.36 45.05-16.67 44.36-16.99 43.58-16.99ZM53.88-11.69L52.92-11.94Q53.29-12.89 53.72-13.76 54.15-14.62 54.63-15.28 55.12-15.94 55.7-16.35 56.27-16.75 56.98-16.75L56.98-16.75Q57.32-16.75 57.76-16.6 58.2-16.46 58.6-16.02 59-15.58 59.27-14.75 59.54-13.92 59.54-12.55L59.54-12.55Q59.54-11.84 59.47-10.99 59.39-10.13 59.32-9.3L59.32-9.3Q60.08-10.91 60.82-12.02 61.57-13.13 62.29-13.81 63.01-14.48 63.72-14.78 64.42-15.09 65.13-15.09L65.13-15.09Q65.45-15.09 65.88-14.94 66.3-14.79 66.68-14.43 67.06-14.06 67.32-13.43 67.57-12.79 67.57-11.79L67.57-11.79Q67.57-10.99 67.45-10.18 67.33-9.38 67.18-8.62 67.04-7.86 66.91-7.19 66.79-6.52 66.79-6.01L66.79-6.01Q66.79-4.79 67.23-4.14 67.67-3.49 68.57-3.49L68.57-3.49Q69.31-3.49 69.97-4.04 70.62-4.59 71.2-5.44 71.77-6.3 72.25-7.32 72.72-8.35 73.08-9.29 73.43-10.23 73.68-10.95 73.92-11.67 74.02-11.94L74.02-11.94 74.97-11.69Q74.63-10.84 74.25-9.8 73.87-8.76 73.41-7.71 72.94-6.67 72.41-5.68 71.87-4.69 71.21-3.93 70.55-3.17 69.78-2.71 69.01-2.25 68.09-2.25L68.09-2.25Q67.3-2.25 66.73-2.55 66.16-2.86 65.77-3.37 65.38-3.88 65.18-4.59 64.99-5.3 64.99-6.1L64.99-6.1Q64.99-7.01 65.14-7.96 65.3-8.91 65.49-9.79 65.67-10.67 65.83-11.41 65.99-12.16 65.99-12.65L65.99-12.65Q65.99-13.4 65.69-13.78 65.4-14.16 64.89-14.16L64.89-14.16Q64.18-14.16 63.51-13.65 62.84-13.13 62.21-12.28 61.59-11.43 61.03-10.33 60.47-9.23 59.99-8.07 59.52-6.91 59.11-5.76 58.71-4.61 58.42-3.69 58.12-2.76 57.92-2.11 57.71-1.46 57.64-1.29L57.64-1.29 56.22-1.54Q56.51-2.98 56.76-4.58 57-6.18 57.18-7.73 57.37-9.28 57.48-10.69 57.59-12.11 57.59-13.21L57.59-13.21Q57.59-14.7 57.39-15.22 57.2-15.75 56.68-15.75L56.68-15.75Q56.25-15.75 55.85-15.42 55.46-15.09 55.13-14.54 54.8-13.99 54.49-13.26 54.17-12.52 53.88-11.69L53.88-11.69ZM83.56-29.96L83.56-29.96Q83.56-28.1 82.89-26 82.22-23.9 81.14-21.66 80.07-19.41 78.72-17.08 77.36-14.75 76.02-12.45L76.02-12.45Q75.75-10.18 75.52-7.93 75.29-5.69 75.13-3.67 74.97-1.66 74.87 0.02 74.77 1.71 74.77 2.86L74.77 2.86Q74.77 5.2 75 7.07 75.24 8.94 75.71 10.24 76.19 11.55 76.88 12.24 77.58 12.94 78.53 12.94L78.53 12.94Q79.07 12.94 79.44 12.6 79.8 12.26 80.05 11.72 80.29 11.18 80.41 10.5 80.53 9.81 80.6 9.13 80.66 8.45 80.67 7.84 80.68 7.23 80.68 6.81L80.68 6.81Q80.68 4.08 80.31 1.6 79.95-0.88 79.41-2.66L79.41-2.66 79.22-2.66Q78.63-2.66 78.11-2.82 77.58-2.98 77.17-3.27 76.75-3.56 76.51-3.96 76.26-4.35 76.26-4.81L76.26-4.81Q76.26-5.47 76.66-5.93 77.07-6.4 77.68-6.4L77.68-6.4Q78.43-6.4 79.12-5.68 79.8-4.96 80.36-3.76L80.36-3.76Q81.34-4.15 82.16-5.13 82.98-6.1 83.64-7.31 84.29-8.52 84.79-9.77 85.3-11.01 85.66-11.94L85.66-11.94 86.61-11.69Q86.22-10.64 85.69-9.31 85.15-7.98 84.44-6.73 83.73-5.47 82.82-4.43 81.9-3.39 80.73-2.95L80.73-2.95Q81.12-1.93 81.44-0.74 81.76 0.44 81.99 1.68 82.22 2.93 82.34 4.17 82.46 5.42 82.46 6.59L82.46 6.59Q82.46 8.15 82.21 9.5 81.95 10.84 81.45 11.83 80.95 12.82 80.2 13.38 79.46 13.94 78.46 13.94L78.46 13.94Q77.12 13.94 76.18 13.29 75.24 12.65 74.6 11.57 73.97 10.5 73.6 9.14 73.23 7.79 73.05 6.37 72.87 4.96 72.82 3.6 72.77 2.25 72.77 1.2L72.77 1.2Q72.77-1.22 72.99-4.22 73.21-7.23 73.58-10.38 73.94-13.53 74.39-16.61 74.85-19.7 75.3-22.33 75.75-24.95 76.16-26.9 76.58-28.86 76.87-29.71L76.87-29.71Q77.07-30.32 77.4-30.96 77.73-31.59 78.19-32.1 78.65-32.62 79.25-32.93 79.85-33.25 80.63-33.25L80.63-33.25Q81.97-33.25 82.77-32.37 83.56-31.49 83.56-29.96ZM78.07-27.95L78.07-27.95Q77.95-27.32 77.74-26.04 77.53-24.76 77.3-23.01 77.07-21.26 76.8-19.15 76.53-17.04 76.26-14.79L76.26-14.79Q77.6-17.09 78.75-19.18 79.9-21.26 80.74-23.16 81.58-25.05 82.07-26.72 82.56-28.39 82.56-29.91L82.56-29.91Q82.56-30.88 82.13-31.59 81.71-32.3 80.73-32.3L80.73-32.3Q80.02-32.3 79.55-31.81 79.07-31.32 78.78-30.64 78.48-29.96 78.33-29.21 78.17-28.47 78.07-27.95ZM77.26-4.86L77.26-4.86Q77.26-4.39 77.84-3.99 78.41-3.59 79.17-3.54L79.17-3.54Q78.83-4.47 78.47-4.96 78.12-5.44 77.78-5.44L77.78-5.44Q77.58-5.44 77.42-5.3 77.26-5.15 77.26-4.86ZM91.01-0.34L91.01-0.34Q89.76-0.34 88.61-0.78 87.47-1.22 86.6-2.11 85.73-3 85.22-4.35 84.71-5.69 84.71-7.5L84.71-7.5Q84.71-9.69 85.34-11.41 85.98-13.13 86.97-14.32 87.95-15.5 89.17-16.13 90.4-16.75 91.57-16.75L91.57-16.75Q93.08-16.75 93.97-15.75 94.86-14.75 94.86-13.16L94.86-13.16Q94.86-11.79 94.35-10.68 93.84-9.57 93-8.78 92.15-7.98 91.07-7.54 89.98-7.1 88.81-7.1L88.81-7.1Q88.25-7.1 87.75-7.17 87.25-7.23 86.86-7.3L86.86-7.3Q87-5.79 87.44-4.69 87.88-3.59 88.54-2.88 89.2-2.17 90.02-1.83 90.83-1.49 91.71-1.49L91.71-1.49Q92.81-1.49 93.74-2.03 94.67-2.56 95.45-3.43 96.23-4.3 96.88-5.42 97.52-6.54 98.04-7.7 98.55-8.86 98.95-9.97 99.36-11.08 99.67-11.94L99.67-11.94 100.62-11.69Q100.31-10.89 99.88-9.74 99.45-8.59 98.89-7.34 98.33-6.08 97.57-4.82 96.82-3.56 95.86-2.58 94.91-1.59 93.7-0.96 92.49-0.34 91.01-0.34ZM91.62-15.8L91.62-15.8Q90.71-15.8 89.85-15.22 88.98-14.65 88.3-13.65 87.61-12.65 87.18-11.28 86.76-9.91 86.76-8.35L86.76-8.35Q87.07-8.23 87.65-8.14 88.22-8.06 89.05-8.06L89.05-8.06Q89.93-8.06 90.8-8.44 91.66-8.81 92.36-9.48 93.06-10.16 93.48-11.08 93.91-12.01 93.91-13.11L93.91-13.11Q93.91-13.65 93.76-14.14 93.62-14.62 93.32-14.99 93.03-15.36 92.6-15.58 92.18-15.8 91.62-15.8ZM105.51-12.7L105.51-12.7Q105.51-14.16 106.2-15.23 106.9-16.31 108-17.31L108-17.31Q107.65-17.53 107.26-17.64 106.87-17.75 106.51-17.75L106.51-17.75Q105.7-17.75 104.78-17.35 103.87-16.94 103.1-15.99 102.33-15.04 101.82-13.44 101.31-11.84 101.31-9.45L101.31-9.45Q101.31-7.47 101.78-6.05 102.26-4.64 103.09-3.72 103.92-2.81 105.02-2.38 106.12-1.95 107.36-1.95L107.36-1.95Q108.85-1.95 110.02-2.72 111.19-3.49 112.17-4.85 113.15-6.2 113.99-8.02 114.83-9.84 115.66-11.94L115.66-11.94 116.59-11.69Q116.1-10.5 115.58-9.23 115.05-7.96 114.43-6.73 113.81-5.49 113.06-4.39 112.32-3.3 111.35-2.47 110.39-1.64 109.19-1.15 108-0.66 106.51-0.66L106.51-0.66Q104.99-0.66 103.64-1.16 102.28-1.66 101.26-2.67 100.23-3.69 99.62-5.22 99.01-6.76 99.01-8.84L99.01-8.84Q99.01-10.94 99.71-12.74 100.4-14.55 101.48-15.87 102.55-17.19 103.84-17.94 105.14-18.7 106.31-18.7L106.31-18.7Q107.68-18.7 108.75-17.99L108.75-17.99Q108.95-18.14 109.13-18.3 109.31-18.46 109.51-18.65L109.51-18.65 110.05-17.9Q109.9-17.75 109.75-17.63 109.61-17.5 109.46-17.36L109.46-17.36Q109.9-16.82 110.18-16.09 110.46-15.36 110.46-14.45L110.46-14.45Q110.46-13.45 110.23-12.68 110-11.91 109.59-11.38 109.19-10.84 108.68-10.57 108.17-10.3 107.6-10.3L107.6-10.3Q107.31-10.3 106.95-10.44 106.58-10.57 106.26-10.85 105.94-11.13 105.72-11.58 105.51-12.04 105.51-12.7ZM109.46-14.45L109.46-14.45Q109.46-15.16 109.25-15.72 109.05-16.28 108.7-16.7L108.7-16.7Q107.8-15.92 107.15-14.95 106.51-13.99 106.51-12.7L106.51-12.7Q106.51-12.01 106.85-11.63 107.19-11.25 107.65-11.25L107.65-11.25Q108.19-11.25 108.54-11.6 108.9-11.94 109.09-12.44 109.29-12.94 109.37-13.49 109.46-14.04 109.46-14.45ZM110.09-19.65L110.48-20.56Q110.85-20.34 111.36-20.04 111.87-19.75 112.56-19.48 113.24-19.21 114.08-18.98 114.93-18.75 115.93-18.65L115.93-18.65Q116.27-20.85 116.81-22.62 117.34-24.39 117.99-25.65 118.64-26.9 119.33-27.58 120.03-28.25 120.69-28.25L120.69-28.25Q121.44-28.25 121.76-27.66 122.08-27.08 122.08-26.1L122.08-26.1Q122.08-25.39 121.93-24.54 121.79-23.68 121.54-22.72 121.3-21.75 120.96-20.72 120.61-19.68 120.25-18.65L120.25-18.65Q122.69-18.87 124.75-19.46 126.82-20.04 128.33-20.65L128.33-20.65 128.79-19.75Q126.79-18.99 124.64-18.4 122.49-17.8 119.83-17.65L119.83-17.65Q119.22-16.06 118.58-14.64 117.93-13.21 117.39-12.16L117.39-12.16Q117.42-10.79 117.55-9.19 117.69-7.59 118.09-6.2 118.49-4.81 119.24-3.88 119.98-2.95 121.2-2.95L121.2-2.95Q122.23-2.95 123.08-3.82 123.94-4.69 124.66-6.02 125.38-7.35 125.99-8.94 126.6-10.52 127.13-11.94L127.13-11.94 128.09-11.69Q127.74-10.82 127.35-9.72 126.96-8.62 126.47-7.48 125.99-6.35 125.4-5.29 124.81-4.22 124.11-3.38 123.4-2.54 122.54-2.04 121.69-1.54 120.69-1.54L120.69-1.54Q119.61-1.54 118.67-2.03 117.73-2.51 117.04-3.77 116.34-5.03 115.94-7.19 115.54-9.35 115.54-12.7L115.54-12.7Q115.54-15.38 115.83-17.7L115.83-17.7Q113.73-17.97 112.3-18.54 110.87-19.12 110.09-19.65L110.09-19.65ZM120.83-26.95L120.83-26.95Q120.61-26.95 120.18-26.51 119.74-26.07 119.25-25.09 118.76-24.1 118.31-22.5 117.86-20.9 117.59-18.55L117.59-18.55 118.05-18.55 119.25-18.55Q119.69-19.78 120.02-20.92 120.35-22.07 120.59-23.06 120.83-24.05 120.96-24.84 121.08-25.63 121.08-26.15L121.08-26.15Q121.08-26.95 120.83-26.95ZM117.39-14.16L117.39-14.11Q117.81-14.97 118.17-15.83 118.54-16.7 118.88-17.6L118.88-17.6 117.98-17.6 117.49-17.6Q117.44-16.82 117.42-15.95 117.39-15.09 117.39-14.16L117.39-14.16ZM129.94-2.54L129.94-2.54Q128.4-2.54 127.39-3.78 126.37-5.03 126.37-7.54L126.37-7.54Q126.37-9.2 127.05-11.78 127.72-14.36 129.38-17.6L129.38-17.6 130.28-17.36Q130.13-16.72 129.8-15.63 129.47-14.53 129.15-13.17 128.82-11.82 128.57-10.34 128.33-8.86 128.33-7.5L128.33-7.5Q128.33-6.35 128.5-5.63 128.67-4.91 128.95-4.5 129.23-4.1 129.61-3.96 129.99-3.81 130.43-3.81L130.43-3.81Q131.13-3.81 131.77-4.25 132.4-4.69 132.98-5.41 133.55-6.13 134.05-7.02 134.55-7.91 134.96-8.81 135.36-9.72 135.68-10.53 135.99-11.35 136.19-11.94L136.19-11.94 137.14-11.69Q136.87-10.96 136.52-10 136.16-9.03 135.71-8.01 135.26-6.98 134.7-6.01 134.14-5.03 133.43-4.26 132.72-3.49 131.86-3.02 130.99-2.54 129.94-2.54ZM133.89-25.29L133.89-25.29Q133.89-24.44 133.23-23.97 132.58-23.51 131.57-23.51L131.57-23.51Q131.06-23.51 130.61-23.67 130.16-23.83 129.83-24.08 129.5-24.34 129.32-24.69 129.13-25.05 129.13-25.44L129.13-25.44Q129.13-26.27 129.78-26.78 130.43-27.29 131.28-27.29L131.28-27.29Q131.89-27.29 132.38-27.11 132.87-26.93 133.21-26.64 133.55-26.34 133.72-25.99 133.89-25.63 133.89-25.29ZM132.58-25.29L132.58-25.29Q132.58-25.54 132.37-25.74 132.16-25.95 131.75-25.95L131.75-25.95Q130.99-25.95 130.99-25.39L130.99-25.39Q130.99-25.12 131.22-24.94 131.45-24.76 131.84-24.76L131.84-24.76Q132.21-24.76 132.39-24.91 132.58-25.07 132.58-25.29ZM154.03-11.94L154.98-11.69Q153.98-8.98 153.17-7.15 152.35-5.32 151.58-4.2 150.81-3.08 150.05-2.59 149.3-2.1 148.39-2.1L148.39-2.1Q147.29-2.1 146.51-2.87 145.73-3.64 145.54-5.25L145.54-5.25Q144.76-3.56 143.51-2.5 142.27-1.44 140.39-1.44L140.39-1.44Q139.38-1.44 138.47-1.81 137.55-2.17 136.85-2.94 136.14-3.71 135.71-4.88 135.28-6.05 135.28-7.64L135.28-7.64Q135.28-9.25 135.69-10.67 136.09-12.08 136.75-13.27 137.41-14.45 138.27-15.38 139.14-16.31 140.07-16.94 141-17.58 141.92-17.92 142.85-18.26 143.63-18.26L143.63-18.26Q144.32-18.26 144.95-18.09 145.59-17.92 146.09-17.54 146.59-17.16 146.89-16.53 147.2-15.89 147.2-14.94L147.2-14.94Q147.2-13.82 146.77-12.99 146.34-12.16 145.74-11.6 145.15-11.04 144.52-10.69 143.9-10.35 143.53-10.21L143.53-10.21 143.24-11.16Q143.31-11.16 143.79-11.35 144.27-11.55 144.79-12 145.32-12.45 145.76-13.16 146.2-13.87 146.2-14.89L146.2-14.89Q146.2-16.06 145.54-16.69 144.88-17.31 143.85-17.31L143.85-17.31Q143.07-17.31 142.02-16.75 140.97-16.19 140.01-14.99 139.04-13.79 138.37-11.96 137.7-10.13 137.7-7.59L137.7-7.59Q137.7-5.08 138.59-3.76 139.48-2.44 141-2.44L141-2.44Q141.75-2.44 142.45-2.87 143.14-3.3 143.73-4 144.32-4.71 144.78-5.65 145.24-6.59 145.59-7.59L145.59-7.59Q145.59-8.37 145.77-9.44 145.95-10.5 146.34-11.6L146.34-11.6 147.83-11.11Q147.71-10.79 147.59-10.28 147.47-9.77 147.36-9.16 147.25-8.54 147.17-7.9 147.1-7.25 147.1-6.64L147.1-6.64Q147.1-4.74 147.48-4.02 147.86-3.3 148.78-3.3L148.78-3.3Q149.32-3.3 149.85-3.69 150.37-4.08 150.98-5.05 151.59-6.03 152.32-7.7 153.06-9.38 154.03-11.94L154.03-11.94Z" opacity="1" transform="matrix(1,0,0,1,0,0)" fill="white" class="wordmark-text-0" id="SvgjsPath3252"></path></svg></g></svg></g></svg></g></svg></g></svg></g><defs><mask></mask></defs></svg><rect width="395.52" height="126.70528970470869" fill="black" stroke="none" visibility="hidden"></rect></g></mask><linearGradient x1="0.054" x2="0.941" y1="0.5" y2="0.5" id="5353c038-f1ca-4969-a282-ae4570020697"><stop stop-color="#9c7945" offset="0"></stop><stop stop-color="#faf3aa" offset="0.498"></stop><stop stop-color="#9c7945" offset="1"></stop></linearGradient><rect width="395.52" height="126.70528970470869" fill="#000000" mask="url(#f8d8d95e-f3e3-46f7-b61c-ff40cf3a7419)" data-fill-palette-color="primary"></rect></svg><rect width="395.52" height="126.70528970470869" fill="none" stroke="none" visibility="hidden"></rect></g></svg></g></svg>